<svg width="27" height="26" viewBox="0 0 27 26" fill="none" xmlns="http://www.w3.org/2000/svg">
<path d="M13.5745 18.3327C14.989 18.3327 16.3456 17.7708 17.3458 16.7706C18.346 15.7704 18.9079 14.4138 18.9079 12.9993C18.9079 11.5849 18.346 10.2283 17.3458 9.22811C16.3456 8.22792 14.989 7.66602 13.5745 7.66602C12.1601 7.66602 10.8035 8.22792 9.80331 9.22811C8.80311 10.2283 8.24121 11.5849 8.24121 12.9993C8.24121 14.4138 8.80311 15.7704 9.80331 16.7706C10.8035 17.7708 12.1601 18.3327 13.5745 18.3327Z" stroke="#FAFAFA" stroke-width="1.5" stroke-linecap="round" stroke-linejoin="round"/>
<path d="M1.57422 18.3333V7.66667C1.57422 5.89856 2.2766 4.20286 3.52684 2.95262C4.77708 1.70238 6.47278 1 8.24089 1H18.9076C20.6757 1 22.3714 1.70238 23.6216 2.95262C24.8718 4.20286 25.5742 5.89856 25.5742 7.66667V18.3333C25.5742 20.1014 24.8718 21.7971 23.6216 23.0474C22.3714 24.2976 20.6757 25 18.9076 25H8.24089C6.47278 25 4.77708 24.2976 3.52684 23.0474C2.2766 21.7971 1.57422 20.1014 1.57422 18.3333Z" stroke="#FAFAFA" stroke-width="1.5"/>
<path d="M20.9072 5.68068L20.9206 5.66602" stroke="#FAFAFA" stroke-width="1.5" stroke-linecap="round" stroke-linejoin="round"/>
</svg>
