<svg width="16" height="10" viewBox="0 0 16 10" fill="none" xmlns="http://www.w3.org/2000/svg">
<path d="M15.0536 9.42313C14.9303 9.55832 14.7837 9.66558 14.6224 9.73876C14.4611 9.81194 14.2882 9.84961 14.1136 9.84961C13.939 9.84961 13.766 9.81194 13.6047 9.73876C13.4434 9.66558 13.2969 9.55832 13.1736 9.42313L8.00006 3.7648L2.82657 9.42313C2.57725 9.6958 2.23912 9.84899 1.88654 9.84899C1.53396 9.84899 1.19582 9.6958 0.946505 9.42313C0.697194 9.15045 0.557135 8.78063 0.557135 8.395C0.557135 8.00938 0.697194 7.63955 0.946504 7.36688L7.0667 0.673129C7.19005 0.537937 7.33658 0.43068 7.49788 0.357499C7.65918 0.284317 7.8321 0.246649 8.00673 0.246649C8.18136 0.246649 8.35427 0.284317 8.51558 0.357499C8.67688 0.43068 8.8234 0.537937 8.94676 0.673129L15.067 7.36688C15.5736 7.92105 15.5736 8.85438 15.0536 9.42313Z" fill="#FAFAFA"/>
</svg>
